<svg height="64" viewBox="0 0 128 128" width="64" xmlns="http://www.w3.org/2000/svg" xmlns:xlink="http://www.w3.org/1999/xlink"><linearGradient id="a" gradientUnits="userSpaceOnUse" x1="0" x2="128" y1="128" y2="0"><stop offset="0" stop-color="#333"/><stop offset="1" stop-color="#5d5d5d"/></linearGradient><path d="m22.13243 34.688515c-4.638721 0-8.370725 3.732004-8.370725 8.370724v41.881522c0 4.63872 3.732004 8.370724 8.370725 8.370724h83.73514c4.63872 0 8.37072-3.732004 8.37072-8.370724v-41.881522c0-4.63872-3.732-8.370724-8.37072-8.370724zm67.579643 7.561554c6.491803 0 11.774817 5.25511 11.774817 11.746916s-5.283014 11.774818-11.774817 11.774818c-6.49182 0-11.719013-5.283012-11.719013-11.774818s5.227193-11.746916 11.719013-11.746916zm-65.654377 4.548094h30.692654c2.222721 0 4.017948 1.767324 4.017948 3.990045 0 2.22272-1.795227 4.017947-4.017948 4.017947h-30.692654c-2.22272 0-4.017947-1.795227-4.017947-4.017947 0-2.222721 1.795227-3.990045 4.017947-3.990045zm0 13.700084h30.692654c2.222721 0 4.017948 1.795227 4.017948 4.017948 0 2.22272-1.795227 4.017947-4.017948 4.017947h-30.692654c-2.22272 0-4.017947-1.795227-4.017947-4.017947 0-2.222721 1.795227-4.017948 4.017947-4.017948zm55.888533 3.683119c2.539062 2.432052 5.972282 3.962142 9.765844 3.962142 3.806328 0 7.252248-1.515568 9.793747-3.962142 4.29289 4.431556 7.5474 11.630804 8.87296 20.229249h-37.249714c1.32447-8.599854 4.520713-15.799209 8.817163-20.229249z" fill="url(#a)"/><path d="m27.320289 73.352446c-6.993976 0-13.981896 2.674683-19.3172445 8.010042-10.670726 10.670719-10.670726 27.963762 0 38.634482 10.6707065 10.67071 27.9823845 10.67071 38.6530855 0 10.670729-10.67072 10.670729-27.963763 0-38.634482-5.335351-5.335359-12.34188-8.010042-19.33586-8.010042zm-5.010935 10.841499h10.021855v11.474849h11.474851v10.021866h-11.474851v11.47485h-10.021855v-11.47485h-11.474857v-10.021866h11.474857z" fill="#15a100"/></svg>