<svg viewBox="0 0 72 72" xmlns="http://www.w3.org/2000/svg"><path d="m55.3264 61.6696c.4702 0 .8513-.5583.8513-1.2471v-53.711c0-.6888-.3811-1.2471-.8513-1.2471h-36.6648c-.4702 0-.8513.5583-.8513 1.2471v33.0984l30.1025 21.8597z" fill="#fcea2b"/><path d="m55.3442 60.3668c.4603 0 .8335-.5454.8335-1.2182v-52.466c0-.6728-.3732-1.2182-.8335-1.2182h-35.8977c-.4603 0-.8335.5454-.8335 1.2182v53.6842z" fill="#fcea2b"/><path d="m18.613 6.6826c0-.6728.3732-1.2182.8335-1.2182h35.8977c.4603 0 .8335.5454.8335 1.2182v52.466c0 .6728-.3732 1.2182-.8335 1.2182" fill="#fcea2b"/><path d="m51.1805 66.4522h-35.8977c-.4603 0-.8335-.5454-.8335-1.2182v-7.1774-34.7127-3.9428-6.6331c0-.6728.3732-1.2182.8335-1.2182h35.8977c.4603 0 .8335.5454.8335 1.2182v52.466c0 .6728-.3732 1.2182-.8335 1.2182z" fill="#f1b31c"/><g fill="none" stroke="#000" stroke-linejoin="round" stroke-width="2"><path d="m18.613 6.6826c0-.6728.3732-1.2182.8335-1.2182h35.8977c.4603 0 .8335.5454.8335 1.2182v52.466c0 .6728-.3732 1.2182-.8335 1.2182" stroke-linecap="round" stroke-miterlimit="10"/><path d="m51.1805 66.4522h-35.8977c-.4603 0-.8335-.5454-.8335-1.2182v-7.1774-34.7127-3.9428-6.6331c0-.6728.3732-1.2182.8335-1.2182h35.8977c.4603 0 .8335.5454.8335 1.2182v52.466c0 .6728-.3732 1.2182-.8335 1.2182z" stroke-linecap="round" stroke-miterlimit="10"/><path d="m12.3558 20.5008h7.2722" stroke-linecap="round" stroke-miterlimit="10"/><path d="m12.3558 27.8644h7.2722" stroke-linecap="round" stroke-miterlimit="10"/><path d="m11 35.3193h7.2722" stroke-linecap="round" stroke-miterlimit="10"/><path d="m18.2722 42.6828h-7.2722" stroke-linecap="round" stroke-miterlimit="10"/><path d="m11 50.0464h7.2722" stroke-linecap="round" stroke-miterlimit="10"/><path d="m11 57.4099h7.2722" stroke-linecap="round" stroke-miterlimit="10"/><path d="m42.8181 45.6368s0-.7431-.3715-2.2292c-.4499-1.8004-1.4862-2.9723-3.7154-2.9723-1.8577 0-5.5731 0-8.1739 0-2.2292 0-3.2653 1.172-3.7154 2.9723-.3715 1.4862-.3715 2.2292-.3715 2.2292" stroke-linecap="round"/><path d="m30.9288 33.0044c0 1.3838.2003 2.9012.7431 3.7154.6916 1.0377 1.8642 1.4862 2.9723 1.4862 1.1502 0 2.28-.4485 2.9723-1.4862.5424-.8142.7431-2.3316.7431-3.7154 0-1.0379-.3715-4.4585-3.7154-4.4585s-3.7154 2.7286-3.7154 4.4585z"/></g></svg>