<svg height="64" preserveAspectRatio="none" viewBox="0 0 64 64" width="64" xmlns="http://www.w3.org/2000/svg"><g fill="#09bbce"><path d="m41.09375 55.0625h-34.8339844v-46.125h34.8339844v6.753418l3.609375-3.6079102c0-.0009766.0019531-.0014648.0019531-.0019531l.3886719-.3886719v-4.7548828c0-1.1044922-.8945313-2-2-2h-38.8339844c-1.1044922 0-2 .8955078-2 2v50.125c0 1.1044922.8955078 2 2 2h38.8339844c1.1054688 0 2-.8955078 2-2v-19.5332031l-4 4z"/><path d="m61.1542969 15.8139648-7.2636719-7.2626953c-.78125-.7802734-2.046875-.7807617-2.828125.0004883l-4.9453125 4.9458008-25.296875 25.293457c-.375.375-.5859375.8837891-.5859375 1.4140625 0 .0087891.0029297.0175781.0029297.0273438l-2.5068359 9.3544922c-.1845703.6904297.0126953 1.4267578.5175781 1.9316406.3798828.3798828.890625.5859375 1.4140625.5859375.1728516 0 .3466797-.0224609.5175781-.0683594l9.8359375-2.6357422c.0273438-.0078125.0507813-.0234375.078125-.0322266.1132813-.0361328.2216797-.0810547.3271484-.1357422.0410156-.0214844.0820313-.0410156.1220703-.0654297.1289063-.0791016.2529297-.1699219.3623047-.2783203.0019531-.0029297.0058594-.0048828.0078125-.0068359l25.2939453-25.2924805 4.9472656-4.9467773c.375-.375.5859375-.8837891.5859375-1.4140625s-.2109374-1.0390625-.5859374-1.4145508zm-38.663086 31.4624024.8417969-3.1435547 2.3007813 2.3007813zm7.006836-2.6357422-4.4345703-4.4355469 22.4677734-22.4648437 4.4335938 4.4350586zm25.2949219-25.2939453-4.4335938-4.4350586 2.1171875-2.1171875 4.4355469 4.434082z"/></g></svg>