<svg xmlns="http://www.w3.org/2000/svg" xmlns:xlink="http://www.w3.org/1999/xlink" viewBox="0,0,256,256" width="50px" height="50px" fill-rule="nonzero"><g fill="#ff0000" fill-rule="nonzero" stroke="none" stroke-width="1" stroke-linecap="butt" stroke-linejoin="miter" stroke-miterlimit="10" stroke-dasharray="" stroke-dashoffset="0" font-family="none" font-weight="none" font-size="none" text-anchor="none" style="mix-blend-mode: normal"><g transform="scale(5.12,5.12)"><path d="M21.3125,0c-11.74219,0 -21.3125,9.57031 -21.3125,21.3125c0,11.74219 9.57031,21.3125 21.3125,21.3125v-2c-10.65625,0 -19.3125,-8.65625 -19.3125,-19.3125c0,-10.65625 8.65625,-19.3125 19.3125,-19.3125c10.65625,0 19.3125,8.65625 19.3125,19.3125h2c0,-11.74219 -9.57422,-21.3125 -21.3125,-21.3125zM21.3125,5.53125c-8.6875,0 -15.78125,7.09766 -15.78125,15.78125c0,8.68359 7.09766,15.75 15.78125,15.75v-2c-7.60156,0 -13.78125,-6.14844 -13.78125,-13.75c0,-7.60156 6.17969,-13.78125 13.78125,-13.78125c7.60156,0 13.75,6.17969 13.75,13.78125h2c0,-8.6875 -7.06641,-15.78125 -15.75,-15.78125zM21.3125,11.0625c-5.63281,0 -10.25,4.61719 -10.25,10.25c0,5.63281 4.61719,10.21875 10.25,10.21875v-2c-4.54687,0 -8.25,-3.67187 -8.25,-8.21875c0,-4.54687 3.70313,-8.25 8.25,-8.25c4.54688,0 8.21875,3.70313 8.21875,8.25h2c0,-5.63281 -4.58594,-10.25 -10.21875,-10.25zM30.8125,24c-0.20312,0.03516 -0.38672,0.13672 -0.53125,0.28125l-6,6c-0.1875,0.19141 -0.28906,0.45313 -0.28125,0.71875v17c0,1.09375 0.90625,2 2,2h22c1.09375,0 2,-0.90625 2,-2v-22c0,-1.09375 -0.90625,-2 -2,-2h-17c-0.03125,0 -0.0625,0 -0.09375,0c-0.03125,0 -0.0625,0 -0.09375,0zM31.4375,26h16.5625v22h-22v-16.5625zM33.34375,32c-0.72266,0 -1.34375,0.62109 -1.34375,1.34375v7.3125c0,0.72266 0.62109,1.34375 1.34375,1.34375h7.3125c0.72266,0 1.34375,-0.62109 1.34375,-1.34375v-7.3125c0,-0.72266 -0.62109,-1.34375 -1.34375,-1.34375zM34,34h6v6h-6z"></path></g></g></svg>