<svg xmlns="http://www.w3.org/2000/svg" xmlns:xlink="http://www.w3.org/1999/xlink" viewBox="0,0,256,256" width="50px" height="50px" fill-rule="nonzero"><g fill="#ff0000" fill-rule="nonzero" stroke="none" stroke-width="1" stroke-linecap="butt" stroke-linejoin="miter" stroke-miterlimit="10" stroke-dasharray="" stroke-dashoffset="0" font-family="none" font-weight="none" font-size="none" text-anchor="none" style="mix-blend-mode: normal"><g transform="scale(5.12,5.12)"><path d="M5,5v12h-2c-1.64453,0 -3,1.35547 -3,3v22c0,1.64453 1.35547,3 3,3h44c1.64453,0 3,-1.35547 3,-3v-22c0,-1.64453 -1.35547,-3 -3,-3h-2v-12h-2v12h-2v-12h-4v12h-2v-12h-2v12h-2v-12h-3v12h-2v-12h-2v12h-2v-12h-8v12h-2v-12h-3v12h-2v-12zM3,19h44c0.55469,0 1,0.44531 1,1v22c0,0.55469 -0.44531,1 -1,1h-44c-0.55469,0 -1,-0.44531 -1,-1v-22c0,-0.55469 0.44531,-1 1,-1zM5,21v14h2v-14zM9,21v14h3v-14zM14,21v14h8v-14zM24,21v14h2v-14zM28,21v14h3v-14zM33,21v14h2v-14zM37,21v14h4v-14zM43,21v14h2v-14z"></path></g></g></svg>