<svg fill="none" height="14" viewBox="0 0 14 14" width="14" xmlns="http://www.w3.org/2000/svg" xmlns:xlink="http://www.w3.org/1999/xlink"><clipPath id="a"><path d="m0 0h14v14h-14z"/></clipPath><g clip-path="url(#a)" stroke="#000" stroke-linecap="round" stroke-linejoin="round"><path d="m7.5 13.5v-5.25c0-.33152.13169-.64946.36611-.88388s.55237-.36612.88389-.36612.64946.1317.88388.36612.36612.55236.36612.88388v2.75h1.5c.5304 0 1.0391.2107 1.4142.5858s.5858.8838.5858 1.4142v.5"/><path d="m1 1.5c.27614 0 .5-.22386.5-.5 0-.276142-.22386-.5-.5-.5-.276142 0-.5.223858-.5.5 0 .27614.223858.5.5.5z"/><path d="m5 1.5c.27614 0 .5-.22386.5-.5 0-.276142-.22386-.5-.5-.5s-.5.223858-.5.5c0 .27614.22386.5.5.5z"/><path d="m9 1.5c.27614 0 .5-.22386.5-.5 0-.276142-.22386-.5-.5-.5s-.5.223858-.5.5c0 .27614.22386.5.5.5z"/><path d="m1 5c.27614 0 .5-.22386.5-.5s-.22386-.5-.5-.5c-.276142 0-.5.22386-.5.5s.223858.5.5.5z"/><path d="m5 5c.27614 0 .5-.22386.5-.5s-.22386-.5-.5-.5-.5.22386-.5.5.22386.5.5.5z"/><path d="m5 8.5c.27614 0 .5-.22386.5-.5s-.22386-.5-.5-.5-.5.22386-.5.5.22386.5.5.5z"/><path d="m9 5c.27614 0 .5-.22386.5-.5s-.22386-.5-.5-.5-.5.22386-.5.5.22386.5.5.5z"/><path d="m1 8.5c.27614 0 .5-.22386.5-.5s-.22386-.5-.5-.5c-.276142 0-.5.22386-.5.5s.223858.5.5.5z"/></g></svg>